<svg width="380" height="95" viewBox="0 0 380 95" fill="none" xmlns="http://www.w3.org/2000/svg"><path d="M110.534 17.6h12.012c3.276 0 5.656.742 7.14 2.226 1.512 1.484 2.268 3.36 2.268 5.628 0 2.8-1.26 4.816-3.78 6.048 1.624.588 2.828 1.512 3.612 2.772.812 1.232 1.218 2.576 1.218 4.032 0 2.352-.812 4.396-2.436 6.132-1.596 1.708-4.06 2.562-7.392 2.562h-12.642V17.6zm11.34 11.844c1.624 0 2.856-.322 3.696-.966.868-.644 1.302-1.526 1.302-2.646 0-2.38-1.4-3.57-4.2-3.57h-7.098v7.182h6.3zm1.596 12.894c1.568 0 2.688-.378 3.36-1.134.7-.784 1.05-1.708 1.05-2.772 0-2.884-1.876-4.326-5.628-4.326h-6.678v8.232h7.896zm23.969 5.166c-3.024 0-5.418-.994-7.182-2.982-1.764-1.988-2.646-4.732-2.646-8.232 0-3.5.882-6.244 2.646-8.232 1.764-2.016 4.158-3.024 7.182-3.024s5.418 1.008 7.182 3.024c1.792 1.988 2.688 4.732 2.688 8.232 0 3.5-.882 6.244-2.646 8.232-1.764 1.988-4.172 2.982-7.224 2.982zm0-4.704c1.54 0 2.744-.574 3.612-1.722.896-1.148 1.344-2.744 1.344-4.788s-.448-3.654-1.344-4.83c-.868-1.176-2.072-1.764-3.612-1.764-1.484 0-2.674.602-3.57 1.806-.896 1.176-1.344 2.772-1.344 4.788 0 2.016.434 3.612 1.302 4.788.896 1.148 2.1 1.722 3.612 1.722zm28.406 4.2V34.694c0-3.332-1.33-4.998-3.99-4.998-2.912 0-4.368 1.638-4.368 4.914V47h-4.914V25.538h4.914v2.016c1.4-1.68 3.29-2.52 5.67-2.52 2.24 0 4.06.7 5.46 2.1 1.428 1.4 2.142 3.626 2.142 6.678V47h-4.914zm16.202-25.242c-.56.56-1.246.84-2.058.84-.812 0-1.512-.28-2.1-.84-.56-.588-.84-1.288-.84-2.1s.28-1.498.84-2.058c.588-.56 1.288-.84 2.1-.84s1.498.28 2.058.84c.56.56.84 1.246.84 2.058 0 .812-.28 1.512-.84 2.1zm-8.022 34.23l-2.436-3.78c2.24-.476 3.78-1.064 4.62-1.764.868-.7 1.302-1.736 1.302-3.108V25.538h4.914v20.37c0 3.108-.686 5.376-2.058 6.804-1.512 1.596-3.626 2.688-6.342 3.276zm23.502-8.484c-3.024 0-5.418-.994-7.182-2.982-1.764-1.988-2.646-4.732-2.646-8.232 0-3.5.882-6.244 2.646-8.232 1.764-2.016 4.158-3.024 7.182-3.024s5.418 1.008 7.182 3.024c1.792 1.988 2.688 4.732 2.688 8.232 0 3.5-.882 6.244-2.646 8.232-1.764 1.988-4.172 2.982-7.224 2.982zm0-4.704c1.54 0 2.744-.574 3.612-1.722.896-1.148 1.344-2.744 1.344-4.788s-.448-3.654-1.344-4.83c-.868-1.176-2.072-1.764-3.612-1.764-1.484 0-2.674.602-3.57 1.806-.896 1.176-1.344 2.772-1.344 4.788 0 2.016.434 3.612 1.302 4.788.896 1.148 2.1 1.722 3.612 1.722zm28.196 4.2v-2.058c-1.344 1.708-3.22 2.562-5.628 2.562-2.24 0-4.074-.7-5.502-2.1-1.428-1.428-2.142-3.668-2.142-6.72V25.538h4.914v12.264c0 3.332 1.344 4.998 4.032 4.998 2.884 0 4.326-1.638 4.326-4.914V25.538h4.914V47h-4.914zm11.219 0V25.538h4.914v2.226c.868-1.82 2.338-2.73 4.41-2.73 1.512 0 2.842.49 3.99 1.47l-.714 4.494c-1.064-.756-2.282-1.134-3.654-1.134-1.12 0-2.072.392-2.856 1.176-.784.784-1.176 2.1-1.176 3.948V47h-4.914zm18.783-8.106l-1.218-12.39v-9.408h4.914v9.408l-1.176 12.39h-2.52zm1.26 8.61c-.98 0-1.792-.322-2.436-.966-.644-.644-.966-1.428-.966-2.352 0-.924.322-1.708.966-2.352.644-.672 1.456-1.008 2.436-1.008.952 0 1.764.336 2.436 1.008.672.644 1.008 1.428 1.008 2.352 0 .896-.336 1.68-1.008 2.352-.672.644-1.484.966-2.436.966z" fill="#000"/><path d="M13.9784 64.3h5.208c1.61 0 2.772.371 3.486 1.113.728.742 1.092 1.666 1.092 2.772 0 .672-.189 1.281-.567 1.827-.378.532-.91.945-1.596 1.239.854.266 1.512.714 1.974 1.344.476.616.714 1.344.714 2.184 0 .532-.084 1.036-.252 1.512-.168.476-.427.924-.777 1.344-.35.42-.847.756-1.491 1.008-.644.238-1.393.357-2.247.357h-5.544V64.3zm4.851 6.237c1.022 0 1.799-.203 2.331-.609.532-.42.798-.994.798-1.722 0-1.498-.889-2.247-2.667-2.247h-3.486v4.578h3.024zm.903 6.783c.994 0 1.701-.231 2.121-.693.42-.462.63-1.036.63-1.722 0-1.806-1.141-2.709-3.423-2.709h-3.255v5.124h3.927zm9.4553-11.319c-.224.21-.497.315-.819.315-.322 0-.595-.112-.819-.336-.21-.224-.315-.49-.315-.798 0-.322.112-.595.336-.819.224-.238.49-.357.798-.357.322 0 .595.119.819.357.224.224.336.497.336.819 0 .322-.112.595-.336.819zM27.4657 79V68.269h1.827V79h-1.827zm9.448.252c-1.456 0-2.618-.518-3.486-1.554-.854-1.05-1.281-2.408-1.281-4.074 0-1.75.434-3.122 1.302-4.116.868-.994 2.023-1.491 3.465-1.491 1.288 0 2.345.434 3.171 1.302.84.854 1.26 2.121 1.26 3.801 0 .392-.021.798-.063 1.218h-7.266c.07.98.371 1.771.903 2.373.546.588 1.225.882 2.037.882.896 0 1.666-.322 2.31-.966l1.113 1.239c-.924.924-2.079 1.386-3.465 1.386zm-2.919-6.468h5.502c-.014-1.106-.28-1.904-.798-2.394-.504-.504-1.099-.756-1.785-.756-.826 0-1.505.266-2.037.798-.532.518-.826 1.302-.882 2.352zM50.6915 79v-6.489c0-.966-.21-1.673-.63-2.121-.406-.462-.966-.693-1.68-.693-1.652 0-2.478.924-2.478 2.772V79h-1.827V68.269h1.827v1.092c.658-.896 1.582-1.344 2.772-1.344 1.26 0 2.212.385 2.856 1.155.658.756.987 1.974.987 3.654V79h-1.827zm7.7874 0l-3.927-10.731h1.848l2.541 7.161c.182.532.294.882.336 1.05.042-.168.154-.518.336-1.05l2.499-7.161h1.827L60.0119 79h-1.533zm12.0061.252c-1.456 0-2.618-.518-3.486-1.554-.854-1.05-1.281-2.408-1.281-4.074 0-1.75.434-3.122 1.302-4.116.868-.994 2.023-1.491 3.465-1.491 1.288 0 2.345.434 3.171 1.302.84.854 1.26 2.121 1.26 3.801 0 .392-.021.798-.063 1.218h-7.266c.07.98.371 1.771.903 2.373.546.588 1.225.882 2.037.882.896 0 1.666-.322 2.31-.966l1.113 1.239c-.924.924-2.079 1.386-3.465 1.386zm-2.919-6.468h5.502c-.014-1.106-.28-1.904-.798-2.394-.504-.504-1.099-.756-1.785-.756-.826 0-1.505.266-2.037.798-.532.518-.826 1.302-.882 2.352zM84.2628 79v-6.489c0-.966-.21-1.673-.63-2.121-.406-.462-.966-.693-1.68-.693-1.652 0-2.478.924-2.478 2.772V79h-1.827V68.269h1.827v1.092c.658-.896 1.582-1.344 2.772-1.344 1.26 0 2.212.385 2.856 1.155.658.756.987 1.974.987 3.654V79h-1.827zm11.728 0v-1.029c-.658.854-1.561 1.281-2.709 1.281-1.302 0-2.282-.378-2.94-1.134-.644-.756-.966-1.974-.966-3.654v-6.195h1.827v6.468c0 .966.203 1.68.609 2.142.42.448.987.672 1.701.672 1.652 0 2.478-.924 2.478-2.772v-6.51h1.827V79h-1.827zm9.4602.252c-1.456 0-2.618-.518-3.486-1.554-.854-1.05-1.281-2.408-1.281-4.074 0-1.75.434-3.122 1.302-4.116.868-.994 2.023-1.491 3.465-1.491 1.288 0 2.345.434 3.171 1.302.84.854 1.26 2.121 1.26 3.801 0 .392-.021.798-.063 1.218h-7.266c.07.98.371 1.771.903 2.373.546.588 1.225.882 2.037.882.896 0 1.666-.322 2.31-.966l1.113 1.239c-.924.924-2.079 1.386-3.465 1.386zm-2.919-6.468h5.502c-.014-1.106-.28-1.904-.798-2.394-.504-.504-1.099-.756-1.785-.756-.826 0-1.505.266-2.037.798-.532.518-.826 1.302-.882 2.352zM123.709 79v-.987c-.882.826-1.897 1.239-3.045 1.239-1.134 0-2.044-.308-2.73-.924-.672-.63-1.008-1.526-1.008-2.688 0-1.162.385-2.044 1.155-2.646.77-.602 1.722-.903 2.856-.903 1.036 0 1.96.231 2.772.693v-.756c0-.896-.203-1.519-.609-1.869-.392-.364-.966-.546-1.722-.546-1.078 0-2.121.357-3.129 1.071l-.525-1.533c1.148-.756 2.443-1.134 3.885-1.134 2.548 0 3.822 1.288 3.822 3.864V79h-1.722zm-2.772-1.365c1.05 0 1.974-.469 2.772-1.407V74.38c-.77-.476-1.61-.714-2.52-.714-.742 0-1.351.168-1.827.504-.476.336-.714.826-.714 1.47 0 .602.196 1.085.588 1.449.406.364.973.546 1.701.546zM135.12 79v-1.029c-.658.854-1.561 1.281-2.709 1.281-1.302 0-2.282-.378-2.94-1.134-.644-.756-.966-1.974-.966-3.654v-6.195h1.827v6.468c0 .966.203 1.68.609 2.142.42.448.987.672 1.701.672 1.652 0 2.478-.924 2.478-2.772v-6.51h1.827V79h-1.827zm13.163.252c-1.512 0-2.268-.854-2.268-2.562v-6.825h-1.743v-1.596h1.743V64.72l1.827-.882v4.431h2.646v1.596h-2.646v6.216c0 .476.077.84.231 1.092.154.252.448.378.882.378.476 0 1.008-.189 1.596-.567l-.21 1.785c-.616.322-1.302.483-2.058.483zM159.188 79v-.987c-.882.826-1.897 1.239-3.045 1.239-1.134 0-2.044-.308-2.73-.924-.672-.63-1.008-1.526-1.008-2.688 0-1.162.385-2.044 1.155-2.646.77-.602 1.722-.903 2.856-.903 1.036 0 1.96.231 2.772.693v-.756c0-.896-.203-1.519-.609-1.869-.392-.364-.966-.546-1.722-.546-1.078 0-2.121.357-3.129 1.071l-.525-1.533c1.148-.756 2.443-1.134 3.885-1.134 2.548 0 3.822 1.288 3.822 3.864V79h-1.722zm-2.772-1.365c1.05 0 1.974-.469 2.772-1.407V74.38c-.77-.476-1.61-.714-2.52-.714-.742 0-1.351.168-1.827.504-.476.336-.714.826-.714 1.47 0 .602.196 1.085.588 1.449.406.364.973.546 1.701.546zm12.25 1.617c-1.022 0-1.939-.392-2.751-1.176V79h-1.827V64.699l1.827-.861v5.355c.714-.784 1.61-1.176 2.688-1.176 1.344 0 2.422.497 3.234 1.491.812.994 1.218 2.366 1.218 4.116 0 1.806-.392 3.199-1.176 4.179-.77.966-1.841 1.449-3.213 1.449zm-.252-1.701c.91 0 1.596-.343 2.058-1.029.476-.7.714-1.666.714-2.898 0-1.274-.238-2.247-.714-2.919-.462-.672-1.148-1.008-2.058-1.008-.56 0-1.064.147-1.512.441-.448.294-.777.623-.987.987v4.977c.266.448.623.805 1.071 1.071.448.252.924.378 1.428.378zM175.985 79V64.699l1.827-.861V79h-1.827zm9.528.252c-1.456 0-2.618-.518-3.486-1.554-.854-1.05-1.281-2.408-1.281-4.074 0-1.75.434-3.122 1.302-4.116.868-.994 2.023-1.491 3.465-1.491 1.288 0 2.345.434 3.171 1.302.84.854 1.26 2.121 1.26 3.801 0 .392-.021.798-.063 1.218h-7.266c.07.98.371 1.771.903 2.373.546.588 1.225.882 2.037.882.896 0 1.666-.322 2.31-.966l1.113 1.239c-.924.924-2.079 1.386-3.465 1.386zm-2.919-6.468h5.502c-.014-1.106-.28-1.904-.798-2.394-.504-.504-1.099-.756-1.785-.756-.826 0-1.505.266-2.037.798-.532.518-.826 1.302-.882 2.352zM198.829 79v-.987c-.882.826-1.897 1.239-3.045 1.239-1.134 0-2.044-.308-2.73-.924-.672-.63-1.008-1.526-1.008-2.688 0-1.162.385-2.044 1.155-2.646.77-.602 1.722-.903 2.856-.903 1.036 0 1.96.231 2.772.693v-.756c0-.896-.203-1.519-.609-1.869-.392-.364-.966-.546-1.722-.546-1.078 0-2.121.357-3.129 1.071l-.525-1.533c1.148-.756 2.443-1.134 3.885-1.134 2.548 0 3.822 1.288 3.822 3.864V79h-1.722zm-2.772-1.365c1.05 0 1.974-.469 2.772-1.407V74.38c-.77-.476-1.61-.714-2.52-.714-.742 0-1.351.168-1.827.504-.476.336-.714.826-.714 1.47 0 .602.196 1.085.588 1.449.406.364.973.546 1.701.546zM210.24 79v-1.029c-.658.854-1.561 1.281-2.709 1.281-1.302 0-2.282-.378-2.94-1.134-.644-.756-.966-1.974-.966-3.654v-6.195h1.827v6.468c0 .966.203 1.68.609 2.142.42.448.987.672 1.701.672 1.652 0 2.478-.924 2.478-2.772v-6.51h1.827V79h-1.827zm14.066.252c-1.358 0-2.436-.504-3.234-1.512s-1.197-2.38-1.197-4.116c0-1.75.399-3.122 1.197-4.116.812-.994 1.89-1.491 3.234-1.491 1.05 0 1.953.336 2.709 1.008v-4.326l1.827-.861V79h-1.827v-.84c-.7.728-1.603 1.092-2.709 1.092zm.252-1.701c1.064 0 1.883-.483 2.457-1.449v-5.04c-.574-.91-1.393-1.365-2.457-1.365-.91 0-1.61.343-2.1 1.029-.49.672-.735 1.638-.735 2.898 0 1.134.252 2.072.756 2.814.518.742 1.211 1.113 2.079 1.113zm11.876 1.701c-1.456 0-2.618-.518-3.486-1.554-.854-1.05-1.281-2.408-1.281-4.074 0-1.75.434-3.122 1.302-4.116.868-.994 2.023-1.491 3.465-1.491 1.288 0 2.345.434 3.171 1.302.84.854 1.26 2.121 1.26 3.801 0 .392-.021.798-.063 1.218h-7.266c.07.98.371 1.771.903 2.373.546.588 1.225.882 2.037.882.896 0 1.666-.322 2.31-.966l1.113 1.239c-.924.924-2.079 1.386-3.465 1.386zm-2.919-6.468h5.502c-.014-1.106-.28-1.904-.798-2.394-.504-.504-1.099-.756-1.785-.756-.826 0-1.505.266-2.037.798-.532.518-.826 1.302-.882 2.352zm19.602 6.468c-1.022 0-1.939-.392-2.751-1.176V79h-1.827V64.699l1.827-.861v5.355c.714-.784 1.61-1.176 2.688-1.176 1.344 0 2.422.497 3.234 1.491.812.994 1.218 2.366 1.218 4.116 0 1.806-.392 3.199-1.176 4.179-.77.966-1.841 1.449-3.213 1.449zm-.252-1.701c.91 0 1.596-.343 2.058-1.029.476-.7.714-1.666.714-2.898 0-1.274-.238-2.247-.714-2.919-.462-.672-1.148-1.008-2.058-1.008-.56 0-1.064.147-1.512.441-.448.294-.777.623-.987.987v4.977c.266.448.623.805 1.071 1.071.448.252.924.378 1.428.378zm15.047.21c-.854.994-2.009 1.491-3.465 1.491s-2.611-.497-3.465-1.491c-.854-.994-1.281-2.366-1.281-4.116 0-1.75.427-3.122 1.281-4.116.854-1.008 2.009-1.512 3.465-1.512s2.611.497 3.465 1.491c.854.994 1.281 2.366 1.281 4.116 0 1.75-.427 3.129-1.281 4.137zm-5.607-1.239c.518.686 1.232 1.029 2.142 1.029.91 0 1.617-.343 2.121-1.029.518-.7.777-1.666.777-2.898 0-1.218-.259-2.177-.777-2.877-.504-.7-1.211-1.05-2.121-1.05-.91 0-1.624.35-2.142 1.05-.504.686-.756 1.652-.756 2.898 0 1.218.252 2.177.756 2.877zM272.041 79V68.269h1.827v1.407c.504-1.106 1.351-1.659 2.541-1.659.672 0 1.225.182 1.659.546l-.273 1.722c-.448-.308-.959-.462-1.533-.462-.63 0-1.19.245-1.68.735-.476.49-.714 1.288-.714 2.394V79h-1.827zm11.963.252c-1.358 0-2.436-.504-3.234-1.512s-1.197-2.38-1.197-4.116c0-1.75.399-3.122 1.197-4.116.812-.994 1.89-1.491 3.234-1.491 1.05 0 1.953.336 2.709 1.008v-4.326l1.827-.861V79h-1.827v-.84c-.7.728-1.603 1.092-2.709 1.092zm.252-1.701c1.064 0 1.883-.483 2.457-1.449v-5.04c-.574-.91-1.393-1.365-2.457-1.365-.91 0-1.61.343-2.1 1.029-.49.672-.735 1.638-.735 2.898 0 1.134.252 2.072.756 2.814.518.742 1.211 1.113 2.079 1.113zM306.01 79v-6.762h-6.93V79h-1.827V64.3h1.827v6.216h6.93V64.3h1.827V79h-1.827zm9.769.252c-1.456 0-2.618-.518-3.486-1.554-.854-1.05-1.281-2.408-1.281-4.074 0-1.75.434-3.122 1.302-4.116.868-.994 2.023-1.491 3.465-1.491 1.288 0 2.345.434 3.171 1.302.84.854 1.26 2.121 1.26 3.801 0 .392-.021.798-.063 1.218h-7.266c.07.98.371 1.771.903 2.373.546.588 1.225.882 2.037.882.896 0 1.666-.322 2.31-.966l1.113 1.239c-.924.924-2.079 1.386-3.465 1.386zm-2.919-6.468h5.502c-.014-1.106-.28-1.904-.798-2.394-.504-.504-1.099-.756-1.785-.756-.826 0-1.505.266-2.037.798-.532.518-.826 1.302-.882 2.352zM323.047 79V64.699l1.827-.861V79h-1.827zm9.969.252c-1.12 0-2.037-.42-2.751-1.26v4.389l-1.827.861V68.269h1.827v.903c.77-.77 1.687-1.155 2.751-1.155 1.358 0 2.436.504 3.234 1.512s1.197 2.373 1.197 4.095c0 1.75-.406 3.129-1.218 4.137-.812.994-1.883 1.491-3.213 1.491zm-.231-1.701c.896 0 1.582-.336 2.058-1.008.49-.686.735-1.659.735-2.919 0-1.19-.252-2.142-.756-2.856-.49-.714-1.169-1.071-2.037-1.071-1.134 0-1.974.483-2.52 1.449v4.956c.742.966 1.582 1.449 2.52 1.449zm9.249-11.55c-.224.21-.497.315-.819.315-.322 0-.595-.112-.819-.336-.21-.224-.315-.49-.315-.798 0-.322.112-.595.336-.819.224-.238.49-.357.798-.357.322 0 .595.119.819.357.224.224.336.497.336.819 0 .322-.112.595-.336.819zM340.312 79V68.269h1.827V79h-1.827zm8.209.252c-1.512 0-2.268-.854-2.268-2.562v-6.825h-1.743v-1.596h1.743V64.72l1.827-.882v4.431h2.646v1.596h-2.646v6.216c0 .476.077.84.231 1.092.154.252.448.378.882.378.476 0 1.008-.189 1.596-.567l-.21 1.785c-.616.322-1.302.483-2.058.483zM359.426 79v-.987c-.882.826-1.897 1.239-3.045 1.239-1.134 0-2.044-.308-2.73-.924-.672-.63-1.008-1.526-1.008-2.688 0-1.162.385-2.044 1.155-2.646.77-.602 1.722-.903 2.856-.903 1.036 0 1.96.231 2.772.693v-.756c0-.896-.203-1.519-.609-1.869-.392-.364-.966-.546-1.722-.546-1.078 0-2.121.357-3.129 1.071l-.525-1.533c1.148-.756 2.443-1.134 3.885-1.134 2.548 0 3.822 1.288 3.822 3.864V79h-1.722zm-2.772-1.365c1.05 0 1.974-.469 2.772-1.407V74.38c-.77-.476-1.61-.714-2.52-.714-.742 0-1.351.168-1.827.504-.476.336-.714.826-.714 1.47 0 .602.196 1.085.588 1.449.406.364.973.546 1.701.546zM364.431 79V64.699l1.827-.861V79h-1.827z" fill="#746F6F"/></svg>