<svg width="299" height="52" viewBox="0 0 299 52" fill="none" xmlns="http://www.w3.org/2000/svg"><rect width="299" height="52" rx="16" fill="#EDE3E3"/><path d="M22.666 34V22.1h4.692c1.3147 0 2.2667.323 2.856.969.6007.646.901 1.4507.901 2.414 0 .782-.2323 1.4847-.697 2.108-.4533.612-1.1447 1.0143-2.074 1.207L30.894 34h-1.666l-2.448-5.1h-2.635V34h-1.479zm1.479-6.477h3.247c.7707 0 1.3317-.1927 1.683-.578.3627-.3853.544-.8613.544-1.428 0-.544-.1757-1.02-.527-1.428-.34-.408-.9067-.612-1.7-.612h-3.247v4.046zm12.5222 6.681c-1.1786 0-2.1193-.4193-2.822-1.258-.6913-.85-1.037-1.9493-1.037-3.298 0-1.4167.3514-2.5273 1.054-3.332.7027-.8047 1.6377-1.207 2.805-1.207 1.0427 0 1.8984.3513 2.567 1.054.68.6913 1.02 1.717 1.02 3.077 0 .3173-.017.646-.051.986h-5.882c.0567.7933.3004 1.4337.731 1.921.442.476.9917.714 1.649.714.7254 0 1.3487-.2607 1.87-.782l.901 1.003c-.748.748-1.683 1.122-2.805 1.122zm-2.363-5.236h4.454c-.0113-.8953-.2266-1.5413-.646-1.938-.408-.408-.8896-.612-1.445-.612-.6686 0-1.2183.2153-1.649.646-.4306.4193-.6686 1.054-.714 1.904zm11.2555 5.236c-1.1107 0-1.989-.3967-2.635-1.19-.646-.8047-.969-1.921-.969-3.349 0-1.428.323-2.5443.969-3.349.6573-.8047 1.5583-1.207 2.703-1.207 1.5413 0 2.5557.6743 3.043 2.023l-1.394.51c-.2947-.7707-.8387-1.156-1.632-1.156-.7253 0-1.2693.2777-1.632.833-.3627.5553-.544 1.3373-.544 2.346 0 .9973.1813 1.7737.544 2.329.3627.544.8897.816 1.581.816.9067 0 1.496-.4307 1.768-1.292l1.377.459c-.2153.714-.6007 1.2637-1.156 1.649-.544.3853-1.2183.578-2.023.578zm5.406-.204V22.406l1.479-.68v4.488c.5327-.7367 1.2807-1.105 2.244-1.105 1.02 0 1.7907.3117 2.312.935.5327.612.799 1.598.799 2.958V34h-1.479v-5.253c0-.782-.17-1.3543-.51-1.717-.3287-.374-.782-.561-1.36-.561-1.3373 0-2.006.748-2.006 2.244V34h-1.479zm12.9281.204c-1.1787 0-2.1193-.4193-2.822-1.258-.6913-.85-1.037-1.9493-1.037-3.298 0-1.4167.3513-2.5273 1.054-3.332.7027-.8047 1.6377-1.207 2.805-1.207 1.0427 0 1.8983.3513 2.567 1.054.68.6913 1.02 1.717 1.02 3.077 0 .3173-.017.646-.051.986h-5.882c.0567.7933.3003 1.4337.731 1.921.442.476.9917.714 1.649.714.7253 0 1.3487-.2607 1.87-.782l.901 1.003c-.748.748-1.683 1.122-2.805 1.122zm-2.363-5.236h4.454c-.0113-.8953-.2267-1.5413-.646-1.938-.408-.408-.8897-.612-1.445-.612-.6687 0-1.2183.2153-1.649.646-.4307.4193-.6687 1.054-.714 1.904zM69.6923 34v-8.687h1.479v1.139c.408-.8953 1.0936-1.343 2.057-1.343.544 0 .9916.1473 1.343.442l-.221 1.394c-.3627-.2493-.7764-.374-1.241-.374-.51 0-.9634.1983-1.36.595-.3854.3967-.578 1.0427-.578 1.938V34h-1.479zm9.7014.204c-1.1107 0-1.989-.3967-2.635-1.19-.646-.8047-.969-1.921-.969-3.349 0-1.428.323-2.5443.969-3.349.6573-.8047 1.5583-1.207 2.703-1.207 1.5413 0 2.5556.6743 3.043 2.023l-1.394.51c-.2947-.7707-.8387-1.156-1.632-1.156-.7254 0-1.2694.2777-1.632.833-.3627.5553-.544 1.3373-.544 2.346 0 .9973.1813 1.7737.544 2.329.3626.544.8896.816 1.581.816.9066 0 1.496-.4307 1.768-1.292l1.377.459c-.2154.714-.6007 1.2637-1.156 1.649-.544.3853-1.2184.578-2.023.578zm5.406-.204V22.406l1.479-.68v4.488c.5326-.7367 1.2806-1.105 2.244-1.105 1.02 0 1.7906.3117 2.312.935.5326.612.799 1.598.799 2.958V34h-1.479v-5.253c0-.782-.17-1.3543-.51-1.717-.3287-.374-.782-.561-1.36-.561-1.3374 0-2.006.748-2.006 2.244V34h-1.479zm12.9281.204c-1.1787 0-2.1194-.4193-2.822-1.258-.6914-.85-1.037-1.9493-1.037-3.298 0-1.4167.3513-2.5273 1.054-3.332.7026-.8047 1.6376-1.207 2.805-1.207 1.0426 0 1.8983.3513 2.5672 1.054.68.6913 1.02 1.717 1.02 3.077 0 .3173-.017.646-.051.986h-5.8822c.0566.7933.3003 1.4337.731 1.921.442.476.9916.714 1.649.714.7253 0 1.3486-.2607 1.87-.782l.9012 1.003c-.7482.748-1.6832 1.122-2.8052 1.122zm-2.363-5.236h4.454c-.0114-.8953-.2267-1.5413-.646-1.938-.408-.408-.8897-.612-1.445-.612-.6687 0-1.2184.2153-1.649.646-.4307.4193-.6687 1.054-.714 1.904z" fill="#746F6F"/></svg>