<svg width="120" height="120" viewBox="0 0 120 120" fill="none" xmlns="http://www.w3.org/2000/svg"><path d="M45 58.75c-3.45 0-6.25 2.8-6.25 6.25s2.8 6.25 6.25 6.25 6.25-2.8 6.25-6.25-2.8-6.25-6.25-6.25zm30 0c-3.45 0-6.25 2.8-6.25 6.25s2.8 6.25 6.25 6.25 6.25-2.8 6.25-6.25-2.8-6.25-6.25-6.25zM60 10c-27.6 0-50 22.4-50 50s22.4 50 50 50 50-22.4 50-50-22.4-50-50-50zm0 90c-22.05 0-40-17.95-40-40 0-1.45.1-2.9.25-4.3 11.8-5.25 21.15-14.9 26.05-26.85C55.35 41.65 70.25 50 87.1 50c3.9 0 7.65-.45 11.25-1.3C99.4 52.25 100 56.05 100 60c0 22.05-17.95 40-40 40z" fill="#B72323"/></svg>