<svg width="475" height="136" viewBox="0 0 475 136" fill="none" xmlns="http://www.w3.org/2000/svg"><path d="M37.746 47.504c-2.184 0-4.13-.42-5.838-1.26-1.68-.868-3.024-2.03-4.032-3.486-1.008-1.456-1.764-3.066-2.268-4.83-.504-1.764-.756-3.64-.756-5.628 0-1.456.154-2.898.462-4.326.336-1.428.854-2.8 1.554-4.116.7-1.316 1.54-2.464 2.52-3.444.98-1.008 2.184-1.806 3.612-2.394 1.456-.616 3.038-.924 4.746-.924 2.576 0 4.648.532 6.216 1.596 1.568 1.036 2.926 2.478 4.074 4.326l-4.494 2.562c-1.624-2.408-3.556-3.612-5.796-3.612-1.4 0-2.632.322-3.696.966-1.036.616-1.834 1.456-2.394 2.52-.56 1.036-.966 2.128-1.218 3.276-.252 1.148-.378 2.338-.378 3.57 0 2.912.644 5.362 1.932 7.35 1.288 1.988 3.206 2.982 5.754 2.982 1.624 0 2.968-.532 4.032-1.596 1.092-1.064 1.638-2.366 1.638-3.906v-.462H38.25v-4.746h10.29v4.074c0 3.612-1.008 6.44-3.024 8.484-2.016 2.016-4.606 3.024-7.77 3.024zm25.2269 0c-3.052 0-5.474-.994-7.266-2.982-1.764-2.016-2.646-4.774-2.646-8.274 0-3.472.896-6.202 2.688-8.19 1.792-2.016 4.2-3.024 7.224-3.024 2.744 0 4.984.854 6.72 2.562 1.764 1.708 2.646 4.214 2.646 7.518 0 1.148-.056 2.156-.168 3.024h-14.238c.084 1.512.602 2.73 1.554 3.654.98.924 2.142 1.386 3.486 1.386 1.904 0 3.416-.742 4.536-2.226l3.108 3.192c-1.876 2.24-4.424 3.36-7.644 3.36zm-4.998-13.44h9.492c-.112-1.54-.588-2.702-1.428-3.486-.84-.812-1.862-1.218-3.066-1.218-1.4 0-2.562.392-3.486 1.176-.896.756-1.4 1.932-1.512 3.528zm26.1569 13.44c-1.736 0-3.374-.336-4.914-1.008-1.512-.672-2.66-1.568-3.444-2.688l3.36-2.856c1.512 1.512 3.178 2.268 4.998 2.268 2.324 0 3.486-.7 3.486-2.1 0-.476-.21-.91-.63-1.302-.392-.392-.826-.686-1.302-.882-.448-.224-1.19-.546-2.226-.966-2.464-.812-4.27-1.736-5.418-2.772-1.12-1.064-1.68-2.464-1.68-4.2 0-1.876.714-3.332 2.142-4.368 1.456-1.064 3.29-1.596 5.502-1.596 3.248 0 5.81 1.106 7.686 3.318l-3.402 2.772c-1.26-1.204-2.688-1.806-4.284-1.806-1.932 0-2.898.588-2.898 1.764 0 .588.35 1.092 1.05 1.512.728.42 1.778.854 3.15 1.302 2.324.784 4.074 1.708 5.25 2.772 1.204 1.064 1.806 2.548 1.806 4.452 0 2.044-.742 3.626-2.226 4.746-1.484 1.092-3.486 1.638-6.006 1.638zm19.5912 0c-3.332 0-4.9976-1.834-4.9976-5.502v-12.18h-3.192v-4.284h3.192v-6.51l4.9136-2.352v8.862h4.956v4.284h-4.956v11.214c0 1.372.602 2.058 1.806 2.058 1.092 0 2.212-.322 3.36-.966l-.588 4.41c-1.232.644-2.73.966-4.494.966zm14.48-25.746c-.56.56-1.246.84-2.058.84-.812 0-1.512-.28-2.1-.84-.56-.588-.84-1.288-.84-2.1s.28-1.498.84-2.058c.588-.56 1.288-.84 2.1-.84s1.498.28 2.058.84c.56.56.84 1.246.84 2.058 0 .812-.28 1.512-.84 2.1zM113.667 47V25.538h4.914V47h-4.914zm20.015.504c-3.024 0-5.418-.994-7.182-2.982-1.764-1.988-2.646-4.732-2.646-8.232 0-3.5.882-6.244 2.646-8.232 1.764-2.016 4.158-3.024 7.182-3.024s5.418 1.008 7.182 3.024c1.792 1.988 2.688 4.732 2.688 8.232 0 3.5-.882 6.244-2.646 8.232-1.764 1.988-4.172 2.982-7.224 2.982zm0-4.704c1.54 0 2.744-.574 3.612-1.722.896-1.148 1.344-2.744 1.344-4.788s-.448-3.654-1.344-4.83c-.868-1.176-2.072-1.764-3.612-1.764-1.484 0-2.674.602-3.57 1.806-.896 1.176-1.344 2.772-1.344 4.788 0 2.016.434 3.612 1.302 4.788.896 1.148 2.1 1.722 3.612 1.722zm28.406 4.2V34.694c0-3.332-1.33-4.998-3.99-4.998-2.912 0-4.368 1.638-4.368 4.914V47h-4.914V25.538h4.914v2.016c1.4-1.68 3.29-2.52 5.67-2.52 2.24 0 4.06.7 5.46 2.1 1.428 1.4 2.142 3.626 2.142 6.678V47h-4.914zm29.158.504c-2.744 0-4.914-.994-6.51-2.982-1.596-1.988-2.394-4.746-2.394-8.274 0-3.444.826-6.174 2.478-8.19 1.652-2.016 3.794-3.024 6.426-3.024 2.072 0 3.682.672 4.83 2.016v-8.148l4.914-2.226V47h-4.914v-1.554c-1.064 1.372-2.674 2.058-4.83 2.058zm.756-4.704c1.82 0 3.178-.686 4.074-2.058v-8.988c-.924-1.372-2.282-2.058-4.074-2.058-1.512 0-2.688.574-3.528 1.722-.812 1.12-1.218 2.73-1.218 4.83 0 1.988.42 3.584 1.26 4.788.84 1.176 2.002 1.764 3.486 1.764zm24.164 4.704c-3.052 0-5.474-.994-7.266-2.982-1.764-2.016-2.646-4.774-2.646-8.274 0-3.472.896-6.202 2.688-8.19 1.792-2.016 4.2-3.024 7.224-3.024 2.744 0 4.984.854 6.72 2.562 1.764 1.708 2.646 4.214 2.646 7.518 0 1.148-.056 2.156-.168 3.024h-14.238c.084 1.512.602 2.73 1.554 3.654.98.924 2.142 1.386 3.486 1.386 1.904 0 3.416-.742 4.536-2.226l3.108 3.192c-1.876 2.24-4.424 3.36-7.644 3.36zm-4.998-13.44h9.492c-.112-1.54-.588-2.702-1.428-3.486-.84-.812-1.862-1.218-3.066-1.218-1.4 0-2.562.392-3.486 1.176-.896.756-1.4 1.932-1.512 3.528zm26.157 13.44c-1.736 0-3.374-.336-4.914-1.008-1.512-.672-2.66-1.568-3.444-2.688l3.36-2.856c1.512 1.512 3.178 2.268 4.998 2.268 2.324 0 3.486-.7 3.486-2.1 0-.476-.21-.91-.63-1.302-.392-.392-.826-.686-1.302-.882-.448-.224-1.19-.546-2.226-.966-2.464-.812-4.27-1.736-5.418-2.772-1.12-1.064-1.68-2.464-1.68-4.2 0-1.876.714-3.332 2.142-4.368 1.456-1.064 3.29-1.596 5.502-1.596 3.248 0 5.81 1.106 7.686 3.318l-3.402 2.772c-1.26-1.204-2.688-1.806-4.284-1.806-1.932 0-2.898.588-2.898 1.764 0 .588.35 1.092 1.05 1.512.728.42 1.778.854 3.15 1.302 2.324.784 4.074 1.708 5.25 2.772 1.204 1.064 1.806 2.548 1.806 4.452 0 2.044-.742 3.626-2.226 4.746-1.484 1.092-3.486 1.638-6.006 1.638zm35.468 0c-1.764 0-3.36-.294-4.788-.882-1.428-.588-2.604-1.372-3.528-2.352-.896-.98-1.652-2.142-2.268-3.486-.616-1.344-1.064-2.716-1.344-4.116-.252-1.4-.378-2.856-.378-4.368 0-1.792.224-3.542.672-5.25.448-1.708 1.134-3.318 2.058-4.83.924-1.54 2.212-2.772 3.864-3.696 1.652-.952 3.556-1.428 5.712-1.428 2.604 0 4.788.616 6.552 1.848 1.764 1.204 2.996 2.674 3.696 4.41l-4.536 2.058c-.784-1.204-1.61-2.086-2.478-2.646-.84-.56-1.918-.84-3.234-.84-1.288 0-2.422.322-3.402.966-.952.616-1.694 1.456-2.226 2.52-.504 1.036-.882 2.142-1.134 3.318-.224 1.148-.336 2.338-.336 3.57 0 2.744.602 5.152 1.806 7.224 1.232 2.072 2.996 3.108 5.292 3.108 2.24 0 4.116-1.26 5.628-3.78l4.662 1.764c-2.044 4.592-5.474 6.888-10.29 6.888zM288.187 47V18.944l4.914-2.268v10.878c1.4-1.68 3.29-2.52 5.67-2.52 2.24 0 4.06.7 5.46 2.1 1.428 1.4 2.142 3.626 2.142 6.678V47h-4.914V34.61c0-3.276-1.33-4.914-3.99-4.914-2.912 0-4.368 1.61-4.368 4.83V47h-4.914zm36.503 0v-1.722c-1.428 1.484-3.332 2.226-5.712 2.226-2.296 0-4.172-.616-5.628-1.848-1.428-1.26-2.142-3.024-2.142-5.292 0-2.324.812-4.088 2.436-5.292 1.652-1.204 3.64-1.806 5.964-1.806 2.044 0 3.738.378 5.082 1.134v-1.134c0-1.372-.35-2.366-1.05-2.982-.672-.616-1.722-.924-3.15-.924-2.324 0-4.452.672-6.384 2.016l-1.512-3.99c2.324-1.568 5.124-2.352 8.4-2.352 1.12 0 2.1.098 2.94.294.868.168 1.75.518 2.646 1.05.924.532 1.638 1.372 2.142 2.52s.756 2.576.756 4.284V47h-4.788zm-4.788-3.822c1.876 0 3.472-.686 4.788-2.058v-2.772c-1.232-.588-2.66-.882-4.284-.882-1.316 0-2.38.238-3.192.714-.812.476-1.218 1.204-1.218 2.184 0 .868.336 1.554 1.008 2.058.672.504 1.638.756 2.898.756zM360.555 47V34.694c0-3.332-1.218-4.998-3.654-4.998-1.26 0-2.254.434-2.982 1.302-.7.84-1.05 2.1-1.05 3.78V47h-4.914V34.694c0-3.332-1.218-4.998-3.654-4.998-1.26 0-2.254.434-2.982 1.302-.7.84-1.05 2.1-1.05 3.78V47h-4.914V25.538h4.914v1.974c1.232-1.652 2.982-2.478 5.25-2.478 2.632 0 4.508 1.008 5.628 3.024 1.372-2.016 3.528-3.024 6.468-3.024 2.408 0 4.312.672 5.712 2.016 1.428 1.316 2.142 3.402 2.142 6.258V47h-4.914zm20.677.504c-2.016 0-3.598-.714-4.746-2.142V47h-4.914V18.902l4.914-2.226v10.458c1.204-1.4 2.814-2.1 4.83-2.1 2.66 0 4.802 1.008 6.426 3.024 1.652 2.016 2.478 4.746 2.478 8.19 0 3.584-.798 6.356-2.394 8.316-1.596 1.96-3.794 2.94-6.594 2.94zm-.588-4.704c1.512 0 2.66-.574 3.444-1.722.812-1.176 1.218-2.786 1.218-4.83 0-2.128-.406-3.752-1.218-4.872-.812-1.12-1.96-1.68-3.444-1.68-1.848 0-3.234.7-4.158 2.1v8.946c.896 1.372 2.282 2.058 4.158 2.058zm14.84 4.2V25.538h4.914v2.226c.868-1.82 2.338-2.73 4.41-2.73 1.512 0 2.842.49 3.99 1.47l-.714 4.494c-1.064-.756-2.282-1.134-3.654-1.134-1.12 0-2.072.392-2.856 1.176-.784.784-1.176 2.1-1.176 3.948V47h-4.914zm25.678.504c-3.052 0-5.474-.994-7.266-2.982-1.764-2.016-2.646-4.774-2.646-8.274 0-3.472.896-6.202 2.688-8.19 1.792-2.016 4.2-3.024 7.224-3.024 2.744 0 4.984.854 6.72 2.562 1.764 1.708 2.646 4.214 2.646 7.518 0 1.148-.056 2.156-.168 3.024h-14.238c.084 1.512.602 2.73 1.554 3.654.98.924 2.142 1.386 3.486 1.386 1.904 0 3.416-.742 4.536-2.226l3.108 3.192c-1.876 2.24-4.424 3.36-7.644 3.36zm-4.998-13.44h9.492c-.112-1.54-.588-2.702-1.428-3.486-.84-.812-1.862-1.218-3.066-1.218-1.4 0-2.562.392-3.486 1.176-.896.756-1.4 1.932-1.512 3.528zm26.157 13.44c-1.736 0-3.374-.336-4.914-1.008-1.512-.672-2.66-1.568-3.444-2.688l3.36-2.856c1.512 1.512 3.178 2.268 4.998 2.268 2.324 0 3.486-.7 3.486-2.1 0-.476-.21-.91-.63-1.302-.392-.392-.826-.686-1.302-.882-.448-.224-1.19-.546-2.226-.966-2.464-.812-4.27-1.736-5.418-2.772-1.12-1.064-1.68-2.464-1.68-4.2 0-1.876.714-3.332 2.142-4.368 1.456-1.064 3.29-1.596 5.502-1.596 3.248 0 5.81 1.106 7.686 3.318l-3.402 2.772c-1.26-1.204-2.688-1.806-4.284-1.806-1.932 0-2.898.588-2.898 1.764 0 .588.35 1.092 1.05 1.512.728.42 1.778.854 3.15 1.302 2.324.784 4.074 1.708 5.25 2.772 1.204 1.064 1.806 2.548 1.806 4.452 0 2.044-.742 3.626-2.226 4.746-1.484 1.092-3.486 1.638-6.006 1.638z" fill="#000"/><path d="M113.466 64.3h4.011c1.204 0 2.261.21 3.171.63.91.42 1.624.987 2.142 1.701.518.714.896 1.491 1.134 2.331.252.84.378 1.736.378 2.688 0 .91-.119 1.778-.357 2.604-.224.812-.588 1.589-1.092 2.331-.49.728-1.204 1.316-2.142 1.764-.938.434-2.044.651-3.318.651h-3.927V64.3zm4.158 12.999c.868 0 1.624-.161 2.268-.483.658-.336 1.162-.784 1.512-1.344.35-.574.602-1.176.756-1.806.168-.63.252-1.302.252-2.016 0-1.008-.147-1.925-.441-2.751-.294-.826-.798-1.519-1.512-2.079-.714-.56-1.582-.84-2.604-.84h-2.562v11.319h2.331zm11.584-11.298c-.224.21-.497.315-.819.315-.322 0-.595-.112-.819-.336-.21-.224-.315-.49-.315-.798 0-.322.112-.595.336-.819.224-.238.49-.357.798-.357.322 0 .595.119.819.357.224.224.336.497.336.819 0 .322-.112.595-.336.819zM127.486 79V68.269h1.827V79h-1.827zm8.482.252c-.77 0-1.505-.161-2.205-.483-.686-.336-1.246-.777-1.68-1.323l1.302-1.113c.798.854 1.673 1.281 2.625 1.281.602 0 1.085-.112 1.449-.336.364-.238.546-.581.546-1.029 0-.336-.133-.637-.399-.903-.266-.28-.539-.483-.819-.609-.28-.14-.693-.315-1.239-.525-1.092-.406-1.918-.861-2.478-1.365-.56-.504-.84-1.169-.84-1.995 0-.868.336-1.554 1.008-2.058.686-.518 1.554-.777 2.604-.777 1.498 0 2.702.539 3.612 1.617l-1.26 1.05c-.658-.686-1.449-1.029-2.373-1.029-.546 0-.98.105-1.302.315-.322.21-.483.504-.483.882 0 .21.049.406.147.588.112.168.301.329.567.483.28.154.497.273.651.357.168.07.469.189.903.357 1.134.406 1.995.868 2.583 1.386.602.518.903 1.246.903 2.184 0 .952-.343 1.701-1.029 2.247-.686.532-1.617.798-2.793.798zm11.251 0c-1.12 0-2.037-.42-2.751-1.26v4.389l-1.827.861V68.269h1.827v.903c.77-.77 1.687-1.155 2.751-1.155 1.358 0 2.436.504 3.234 1.512s1.197 2.373 1.197 4.095c0 1.75-.406 3.129-1.218 4.137-.812.994-1.883 1.491-3.213 1.491zm-.231-1.701c.896 0 1.582-.336 2.058-1.008.49-.686.735-1.659.735-2.919 0-1.19-.252-2.142-.756-2.856-.49-.714-1.169-1.071-2.037-1.071-1.134 0-1.974.483-2.52 1.449v4.956c.742.966 1.582 1.449 2.52 1.449zm15.087.21c-.854.994-2.009 1.491-3.465 1.491s-2.611-.497-3.465-1.491c-.854-.994-1.281-2.366-1.281-4.116 0-1.75.427-3.122 1.281-4.116.854-1.008 2.009-1.512 3.465-1.512s2.611.497 3.465 1.491c.854.994 1.281 2.366 1.281 4.116 0 1.75-.427 3.129-1.281 4.137zm-5.607-1.239c.518.686 1.232 1.029 2.142 1.029.91 0 1.617-.343 2.121-1.029.518-.7.777-1.666.777-2.898 0-1.218-.259-2.177-.777-2.877-.504-.7-1.211-1.05-2.121-1.05-.91 0-1.624.35-2.142 1.05-.504.686-.756 1.652-.756 2.898 0 1.218.252 2.177.756 2.877zM172.819 79v-6.489c0-.966-.21-1.673-.63-2.121-.406-.462-.966-.693-1.68-.693-1.652 0-2.478.924-2.478 2.772V79h-1.827V68.269h1.827v1.092c.658-.896 1.582-1.344 2.772-1.344 1.26 0 2.212.385 2.856 1.155.658.756.987 1.974.987 3.654V79h-1.827zm6.961-12.999c-.224.21-.497.315-.819.315-.322 0-.595-.112-.819-.336-.21-.224-.315-.49-.315-.798 0-.322.112-.595.336-.819.224-.238.49-.357.798-.357.322 0 .595.119.819.357.224.224.336.497.336.819 0 .322-.112.595-.336.819zM178.058 79V68.269h1.827V79h-1.827zm9.889.252c-1.022 0-1.939-.392-2.751-1.176V79h-1.827V64.699l1.827-.861v5.355c.714-.784 1.61-1.176 2.688-1.176 1.344 0 2.422.497 3.234 1.491.812.994 1.218 2.366 1.218 4.116 0 1.806-.392 3.199-1.176 4.179-.77.966-1.841 1.449-3.213 1.449zm-.252-1.701c.91 0 1.596-.343 2.058-1.029.476-.7.714-1.666.714-2.898 0-1.274-.238-2.247-.714-2.919-.462-.672-1.148-1.008-2.058-1.008-.56 0-1.064.147-1.512.441-.448.294-.777.623-.987.987v4.977c.266.448.623.805 1.071 1.071.448.252.924.378 1.428.378zm9.209-11.55c-.224.21-.497.315-.819.315-.322 0-.595-.112-.819-.336-.21-.224-.315-.49-.315-.798 0-.322.112-.595.336-.819.224-.238.49-.357.798-.357.322 0 .595.119.819.357.224.224.336.497.336.819 0 .322-.112.595-.336.819zM195.182 79V68.269h1.827V79h-1.827zm5.416 0V64.699l1.827-.861V79h-1.827zm7.135-12.999c-.224.21-.497.315-.819.315-.322 0-.595-.112-.819-.336-.21-.224-.315-.49-.315-.798 0-.322.112-.595.336-.819.224-.238.49-.357.798-.357.322 0 .595.119.819.357.224.224.336.497.336.819 0 .322-.112.595-.336.819zM206.011 79V68.269h1.827V79h-1.827zm8.209.252c-1.512 0-2.268-.854-2.268-2.562v-6.825h-1.743v-1.596h1.743V64.72l1.827-.882v4.431h2.646v1.596h-2.646v6.216c0 .476.077.84.231 1.092.154.252.448.378.882.378.476 0 1.008-.189 1.596-.567l-.21 1.785c-.616.322-1.302.483-2.058.483zm6.515-12.348l2.982-3.276h2.604l-3.738 3.276h-1.848zm2.373 12.348c-1.456 0-2.618-.518-3.486-1.554-.854-1.05-1.281-2.408-1.281-4.074 0-1.75.434-3.122 1.302-4.116.868-.994 2.023-1.491 3.465-1.491 1.288 0 2.345.434 3.171 1.302.84.854 1.26 2.121 1.26 3.801 0 .392-.021.798-.063 1.218h-7.266c.07.98.371 1.771.903 2.373.546.588 1.225.882 2.037.882.896 0 1.666-.322 2.31-.966l1.113 1.239c-.924.924-2.079 1.386-3.465 1.386zm-2.919-6.468h5.502c-.014-1.106-.28-1.904-.798-2.394-.504-.504-1.099-.756-1.785-.756-.826 0-1.505.266-2.037.798-.532.518-.826 1.302-.882 2.352zm18.825 6.468c-1.358 0-2.436-.504-3.234-1.512s-1.197-2.38-1.197-4.116c0-1.75.399-3.122 1.197-4.116.812-.994 1.89-1.491 3.234-1.491 1.05 0 1.953.336 2.709 1.008v-4.326l1.827-.861V79h-1.827v-.84c-.7.728-1.603 1.092-2.709 1.092zm.252-1.701c1.064 0 1.883-.483 2.457-1.449v-5.04c-.574-.91-1.393-1.365-2.457-1.365-.91 0-1.61.343-2.1 1.029-.49.672-.735 1.638-.735 2.898 0 1.134.252 2.072.756 2.814.518.742 1.211 1.113 2.079 1.113zm11.876 1.701c-1.456 0-2.618-.518-3.486-1.554-.854-1.05-1.281-2.408-1.281-4.074 0-1.75.434-3.122 1.302-4.116.868-.994 2.023-1.491 3.465-1.491 1.288 0 2.345.434 3.171 1.302.84.854 1.26 2.121 1.26 3.801 0 .392-.021.798-.063 1.218h-7.266c.07.98.371 1.771.903 2.373.546.588 1.225.882 2.037.882.896 0 1.666-.322 2.31-.966l1.113 1.239c-.924.924-2.079 1.386-3.465 1.386zm-2.919-6.468h5.502c-.014-1.106-.28-1.904-.798-2.394-.504-.504-1.099-.756-1.785-.756-.826 0-1.505.266-2.037.798-.532.518-.826 1.302-.882 2.352zm13.253 6.468c-.77 0-1.505-.161-2.205-.483-.686-.336-1.246-.777-1.68-1.323l1.302-1.113c.798.854 1.673 1.281 2.625 1.281.602 0 1.085-.112 1.449-.336.364-.238.546-.581.546-1.029 0-.336-.133-.637-.399-.903-.266-.28-.539-.483-.819-.609-.28-.14-.693-.315-1.239-.525-1.092-.406-1.918-.861-2.478-1.365-.56-.504-.84-1.169-.84-1.995 0-.868.336-1.554 1.008-2.058.686-.518 1.554-.777 2.604-.777 1.498 0 2.702.539 3.612 1.617l-1.26 1.05c-.658-.686-1.449-1.029-2.373-1.029-.546 0-.98.105-1.302.315-.322.21-.483.504-.483.882 0 .21.049.406.147.588.112.168.301.329.567.483.28.154.497.273.651.357.168.07.469.189.903.357 1.134.406 1.995.868 2.583 1.386.602.518.903 1.246.903 2.184 0 .952-.343 1.701-1.029 2.247-.686.532-1.617.798-2.793.798zm15.437 0c-1.372 0-2.457-.49-3.255-1.47-.798-.994-1.197-2.373-1.197-4.137 0-1.764.399-3.143 1.197-4.137.812-.994 1.925-1.491 3.339-1.491 1.904 0 3.157.833 3.759 2.499l-1.722.63c-.364-.952-1.036-1.428-2.016-1.428-.896 0-1.568.343-2.016 1.029-.448.686-.672 1.652-.672 2.898 0 1.232.224 2.191.672 2.877.448.672 1.099 1.008 1.953 1.008 1.12 0 1.848-.532 2.184-1.596l1.701.567c-.266.882-.742 1.561-1.428 2.037-.672.476-1.505.714-2.499.714zm6.678-.252V64.678l1.827-.84v5.544c.658-.91 1.582-1.365 2.772-1.365 1.26 0 2.212.385 2.856 1.155.658.756.987 1.974.987 3.654V79h-1.827v-6.489c0-.966-.21-1.673-.63-2.121-.406-.462-.966-.693-1.68-.693-1.652 0-2.478.924-2.478 2.772V79h-1.827zm17.986 0v-.987c-.882.826-1.897 1.239-3.045 1.239-1.134 0-2.044-.308-2.73-.924-.672-.63-1.008-1.526-1.008-2.688 0-1.162.385-2.044 1.155-2.646.77-.602 1.722-.903 2.856-.903 1.036 0 1.96.231 2.772.693v-.756c0-.896-.203-1.519-.609-1.869-.392-.364-.966-.546-1.722-.546-1.078 0-2.121.357-3.129 1.071l-.525-1.533c1.148-.756 2.443-1.134 3.885-1.134 2.548 0 3.822 1.288 3.822 3.864V79h-1.722zm-2.772-1.365c1.05 0 1.974-.469 2.772-1.407V74.38c-.77-.476-1.61-.714-2.52-.714-.742 0-1.351.168-1.827.504-.476.336-.714.826-.714 1.47 0 .602.196 1.085.588 1.449.406.364.973.546 1.701.546zM319.057 79v-6.51c0-1.862-.721-2.793-2.163-2.793-.686 0-1.246.266-1.68.798-.42.518-.63 1.204-.63 2.058V79h-1.827v-6.51c0-1.862-.714-2.793-2.142-2.793-.714 0-1.281.252-1.701.756-.406.49-.609 1.162-.609 2.016V79h-1.827V68.269h1.827v1.008c.63-.84 1.568-1.26 2.814-1.26.602 0 1.155.14 1.659.42.518.266.924.651 1.218 1.155.686-1.05 1.722-1.575 3.108-1.575 1.12 0 2.03.343 2.73 1.029.7.686 1.05 1.659 1.05 2.919V79h-1.827zm9.759.252c-1.022 0-1.939-.392-2.751-1.176V79h-1.827V64.699l1.827-.861v5.355c.714-.784 1.61-1.176 2.688-1.176 1.344 0 2.422.497 3.234 1.491.812.994 1.218 2.366 1.218 4.116 0 1.806-.392 3.199-1.176 4.179-.77.966-1.841 1.449-3.213 1.449zm-.252-1.701c.91 0 1.596-.343 2.058-1.029.476-.7.714-1.666.714-2.898 0-1.274-.238-2.247-.714-2.919-.462-.672-1.148-1.008-2.058-1.008-.56 0-1.064.147-1.512.441-.448.294-.777.623-.987.987v4.977c.266.448.623.805 1.071 1.071.448.252.924.378 1.428.378zM336.03 79V68.269h1.827v1.407c.504-1.106 1.351-1.659 2.541-1.659.672 0 1.225.182 1.659.546l-.273 1.722c-.448-.308-.959-.462-1.533-.462-.63 0-1.19.245-1.68.735-.476.49-.714 1.288-.714 2.394V79h-1.827zm12.299.252c-1.456 0-2.618-.518-3.486-1.554-.854-1.05-1.281-2.408-1.281-4.074 0-1.75.434-3.122 1.302-4.116.868-.994 2.023-1.491 3.465-1.491 1.288 0 2.345.434 3.171 1.302.84.854 1.26 2.121 1.26 3.801 0 .392-.021.798-.063 1.218h-7.266c.07.98.371 1.771.903 2.373.546.588 1.225.882 2.037.882.896 0 1.666-.322 2.31-.966l1.113 1.239c-.924.924-2.079 1.386-3.465 1.386zm-2.919-6.468h5.502c-.014-1.106-.28-1.904-.798-2.394-.504-.504-1.099-.756-1.785-.756-.826 0-1.505.266-2.037.798-.532.518-.826 1.302-.882 2.352zm13.253 6.468c-.77 0-1.505-.161-2.205-.483-.686-.336-1.246-.777-1.68-1.323l1.302-1.113c.798.854 1.673 1.281 2.625 1.281.602 0 1.085-.112 1.449-.336.364-.238.546-.581.546-1.029 0-.336-.133-.637-.399-.903-.266-.28-.539-.483-.819-.609-.28-.14-.693-.315-1.239-.525-1.092-.406-1.918-.861-2.478-1.365-.56-.504-.84-1.169-.84-1.995 0-.868.336-1.554 1.008-2.058.686-.518 1.554-.777 2.604-.777 1.498 0 2.702.539 3.612 1.617l-1.26 1.05c-.658-.686-1.449-1.029-2.373-1.029-.546 0-.98.105-1.302.315-.322.21-.483.504-.483.882 0 .21.049.406.147.588.112.168.301.329.567.483.28.154.497.273.651.357.168.07.469.189.903.357 1.134.406 1.995.868 2.583 1.386.602.518.903 1.246.903 2.184 0 .952-.343 1.701-1.029 2.247-.686.532-1.617.798-2.793.798z" fill="#746F6F"/></svg>