<svg width="81" height="30" viewBox="0 0 81 30" fill="none" xmlns="http://www.w3.org/2000/svg"><path d="M2.352 27V10.2h6.432c.976 0 1.824.144 2.544.432.736.288 1.304.68 1.704 1.176.4.48.696 1.008.888 1.584.192.576.288 1.192.288 1.848 0 1.328-.456 2.496-1.368 3.504-.896 1.008-2.248 1.512-4.056 1.512H4.44V27H2.352zm6.576-8.688c1.088 0 1.888-.304 2.4-.912.528-.608.792-1.328.792-2.16 0-.816-.248-1.536-.744-2.16-.496-.624-1.312-.936-2.448-.936H4.44v6.168h4.488zM17.1092 27V14.736h2.088v1.608c.576-1.264 1.544-1.896 2.904-1.896.768 0 1.4.208 1.896.624l-.312 1.968c-.512-.352-1.096-.528-1.752-.528-.72 0-1.36.28-1.92.84-.544.56-.816 1.472-.816 2.736V27h-2.088zm17.9921-1.416c-.976 1.136-2.296 1.704-3.96 1.704-1.664 0-2.984-.568-3.96-1.704-.976-1.136-1.464-2.704-1.464-4.704 0-2 .488-3.568 1.464-4.704.976-1.152 2.296-1.728 3.96-1.728 1.664 0 2.984.568 3.96 1.704.976 1.136 1.464 2.704 1.464 4.704 0 2-.488 3.576-1.464 4.728zm-6.408-1.416c.592.784 1.408 1.176 2.448 1.176s1.848-.392 2.424-1.176c.592-.8.888-1.904.888-3.312 0-1.392-.296-2.488-.888-3.288-.576-.8-1.384-1.2-2.424-1.2s-1.856.4-2.448 1.2c-.576.784-.864 1.888-.864 3.312 0 1.392.288 2.488.864 3.288zm20.1748-11.664c-.352 0-.656-.128-.912-.384s-.384-.56-.384-.912c0-.368.128-.68.384-.936.256-.272.56-.408.912-.408.368 0 .68.136.936.408.256.256.384.568.384.936 0 .368-.128.68-.384.936-.256.24-.568.36-.936.36zm-6.264 4.056V27h-2.088V16.56h-1.896v-1.824h1.896v-2.04c0-.992.256-1.704.768-2.136.512-.432 1.144-.648 1.896-.648.8 0 1.56.192 2.28.576v1.752c-.656-.304-1.24-.456-1.752-.456-.448 0-.744.112-.888.336-.144.224-.216.536-.216.936v1.68h2.856v1.824h-2.856zM47.8361 27V14.736h2.088V27h-2.088zm6.19 0V10.656l2.088-.984V27h-2.088z" fill="#000"/></svg>