<svg width="237" height="30" viewBox="0 0 237 30" fill="none" xmlns="http://www.w3.org/2000/svg"><path d="M8.04 12.192V27H5.952V12.192h-4.68V10.2H12.72v1.992H8.04zM21.4459 27v-1.128c-1.008.944-2.168 1.416-3.48 1.416-1.296 0-2.336-.352-3.12-1.056-.768-.72-1.152-1.744-1.152-3.072s.44-2.336 1.32-3.024c.88-.688 1.968-1.032 3.264-1.032 1.184 0 2.24.264 3.168.792v-.864c0-1.024-.232-1.736-.696-2.136-.448-.416-1.104-.624-1.968-.624-1.232 0-2.424.408-3.576 1.224l-.6-1.752c1.312-.864 2.792-1.296 4.44-1.296 2.912 0 4.368 1.472 4.368 4.416V27h-1.968zm-3.168-1.56c1.2 0 2.256-.536 3.168-1.608V21.72c-.88-.544-1.84-.816-2.88-.816-.848 0-1.544.192-2.088.576-.544.384-.816.944-.816 1.68 0 .688.224 1.24.672 1.656.464.416 1.112.624 1.944.624zm14.0008 1.848c-1.168 0-2.216-.448-3.144-1.344V27h-2.088V10.656l2.088-.984v6.12c.816-.896 1.84-1.344 3.072-1.344 1.536 0 2.768.568 3.696 1.704.928 1.136 1.392 2.704 1.392 4.704 0 2.064-.448 3.656-1.344 4.776-.88 1.104-2.104 1.656-3.672 1.656zm-.288-1.944c1.04 0 1.824-.392 2.352-1.176.544-.8.816-1.904.816-3.312 0-1.456-.272-2.568-.816-3.336-.528-.768-1.312-1.152-2.352-1.152-.64 0-1.216.168-1.728.504-.512.336-.888.712-1.128 1.128v5.688c.304.512.712.92 1.224 1.224.512.288 1.056.432 1.632.432zM40.6433 27V10.656l2.088-.984V27h-2.088zm10.8892.288c-1.664 0-2.992-.592-3.984-1.776-.976-1.2-1.464-2.752-1.464-4.656 0-2 .496-3.568 1.488-4.704.992-1.136 2.312-1.704 3.96-1.704 1.472 0 2.68.496 3.624 1.488.96.976 1.44 2.424 1.44 4.344 0 .448-.024.912-.072 1.392h-8.304c.08 1.12.424 2.024 1.032 2.712.624.672 1.4 1.008 2.328 1.008 1.024 0 1.904-.368 2.64-1.104l1.272 1.416c-1.056 1.056-2.376 1.584-3.96 1.584zm-3.336-7.392h6.288c-.016-1.264-.32-2.176-.912-2.736-.576-.576-1.256-.864-2.04-.864-.944 0-1.72.304-2.328.912-.608.592-.944 1.488-1.008 2.688zM66.7506 27v-1.128c-1.008.944-2.168 1.416-3.48 1.416-1.296 0-2.336-.352-3.12-1.056-.768-.72-1.152-1.744-1.152-3.072s.44-2.336 1.32-3.024c.88-.688 1.968-1.032 3.264-1.032 1.184 0 2.24.264 3.168.792v-.864c0-1.024-.232-1.736-.696-2.136-.448-.416-1.104-.624-1.968-.624-1.232 0-2.424.408-3.576 1.224l-.6-1.752c1.312-.864 2.792-1.296 4.44-1.296 2.912 0 4.368 1.472 4.368 4.416V27h-1.968zm-3.168-1.56c1.2 0 2.256-.536 3.168-1.608V21.72c-.88-.544-1.84-.816-2.88-.816-.848 0-1.544.192-2.088.576-.544.384-.816.944-.816 1.68 0 .688.224 1.24.672 1.656.464.416 1.112.624 1.944.624zM79.7914 27v-1.176c-.752.976-1.784 1.464-3.096 1.464-1.488 0-2.608-.432-3.36-1.296-.736-.864-1.104-2.256-1.104-4.176v-7.08h2.088v7.392c0 1.104.232 1.92.696 2.448.48.512 1.128.768 1.944.768 1.888 0 2.832-1.056 2.832-3.168v-7.44h2.088V27h-2.088zm16.0758.288c-1.5519 0-2.7839-.576-3.6959-1.728-.912-1.152-1.368-2.72-1.368-4.704 0-2 .456-3.568 1.368-4.704.928-1.136 2.16-1.704 3.6959-1.704 1.2001 0 2.2321.384 3.0961 1.152v-4.944l2.0877-.984V27h-2.0877v-.96c-.8.832-1.832 1.248-3.0961 1.248zm.2881-1.944c1.216 0 2.152-.552 2.808-1.656v-5.76c-.656-1.04-1.592-1.56-2.808-1.56-1.04 0-1.84.392-2.4 1.176-.56.768-.84 1.872-.84 3.312 0 1.296.288 2.368.864 3.216.592.848 1.384 1.272 2.376 1.272zm13.5727 1.944c-1.664 0-2.992-.592-3.984-1.776-.976-1.2-1.464-2.752-1.464-4.656 0-2 .496-3.568 1.488-4.704.992-1.136 2.312-1.704 3.96-1.704 1.472 0 2.68.496 3.624 1.488.96.976 1.44 2.424 1.44 4.344 0 .448-.024.912-.072 1.392h-8.304c.08 1.12.424 2.024 1.032 2.712.624.672 1.4 1.008 2.328 1.008 1.024 0 1.904-.368 2.64-1.104l1.272 1.416c-1.056 1.056-2.376 1.584-3.96 1.584zm-3.336-7.392h6.288c-.016-1.264-.32-2.176-.912-2.736-.576-.576-1.256-.864-2.04-.864-.944 0-1.72.304-2.328.912-.608.592-.944 1.488-1.008 2.688zm22.402 7.392c-1.168 0-2.216-.448-3.144-1.344V27h-2.088V10.656l2.088-.984v6.12c.816-.896 1.84-1.344 3.072-1.344 1.536 0 2.768.568 3.696 1.704.928 1.136 1.392 2.704 1.392 4.704 0 2.064-.448 3.656-1.344 4.776-.88 1.104-2.104 1.656-3.672 1.656zm-.288-1.944c1.04 0 1.824-.392 2.352-1.176.544-.8.816-1.904.816-3.312 0-1.456-.272-2.568-.816-3.336-.528-.768-1.312-1.152-2.352-1.152-.64 0-1.216.168-1.728.504-.512.336-.888.712-1.128 1.128v5.688c.304.512.712.92 1.224 1.224.512.288 1.056.432 1.632.432zm17.197.24c-.976 1.136-2.296 1.704-3.96 1.704-1.664 0-2.984-.568-3.96-1.704-.976-1.136-1.464-2.704-1.464-4.704 0-2 .488-3.568 1.464-4.704.976-1.152 2.296-1.728 3.96-1.728 1.664 0 2.984.568 3.96 1.704.976 1.136 1.464 2.704 1.464 4.704 0 2-.488 3.576-1.464 4.728zm-6.408-1.416c.592.784 1.408 1.176 2.448 1.176s1.848-.392 2.424-1.176c.592-.8.888-1.904.888-3.312 0-1.392-.296-2.488-.888-3.288-.576-.8-1.384-1.2-2.424-1.2s-1.856.4-2.448 1.2c-.576.784-.864 1.888-.864 3.312 0 1.392.288 2.488.864 3.288zM150.422 27V14.736h2.088v1.608c.576-1.264 1.544-1.896 2.904-1.896.768 0 1.4.208 1.896.624l-.312 1.968c-.512-.352-1.096-.528-1.752-.528-.72 0-1.36.28-1.92.84-.544.56-.816 1.472-.816 2.736V27h-2.088zm13.672.288c-1.552 0-2.784-.576-3.696-1.728-.912-1.152-1.368-2.72-1.368-4.704 0-2 .456-3.568 1.368-4.704.928-1.136 2.16-1.704 3.696-1.704 1.2 0 2.232.384 3.096 1.152v-4.944l2.088-.984V27h-2.088v-.96c-.8.832-1.832 1.248-3.096 1.248zm.288-1.944c1.216 0 2.152-.552 2.808-1.656v-5.76c-.656-1.04-1.592-1.56-2.808-1.56-1.04 0-1.84.392-2.4 1.176-.56.768-.84 1.872-.84 3.312 0 1.296.288 2.368.864 3.216.592.848 1.384 1.272 2.376 1.272z" fill="#000"/></svg>